<?xml version="1.0"?>
<svg xmlns="http://www.w3.org/2000/svg" width="512" height="512" viewBox="0 0 512 512" fill="none">
<g clip-path="url(#clip0_47_3)">
<path d="M269.7 147L323.7 178.2C325.6 179.3 325.7 182.3 323.7 183.5L259.6 220.5C257.7 221.6 255.3 221.6 253.6 220.5L189.5 183.5C187.5 182.4 187.5 179.3 189.5 178.2L243.5 147V86L105.8 165.5V324.6L158.6 294.2V231.9C158.6 229.7 161.2 228.1 163.1 229.3L227.2 266.3C229.1 267.4 230.3 269.4 230.3 271.6V345.6C230.3 347.8 227.7 349.4 225.8 348.2L171.8 317L119 347.4L256.7 426.9L394.5 347.4L341.7 317L287.7 348.1C285.8 349.3 283.1 347.8 283.2 345.5V271.5C283.2 269.3 284.5 267.3 286.3 266.2L350.4 229.2C352.3 228 355 229.5 354.9 231.8V294.1L407.7 324.5V165.4L269.9 85.9V146.9L269.7 147Z" fill="#FEFEFE"/>
</g>
<defs>
<clipPath id="clip0_47_3">
<rect width="512" height="512" fill="white"/>
</clipPath>
</defs>
</svg>
